<?xml version="1.0" encoding="UTF-8"?>
<svg xmlns="http://www.w3.org/2000/svg" version="1.1" viewBox="0 0 64 64">
  <defs>
    <style>
      .cls-1 {
        fill: #231f20;
      }

      .cls-2 {
        fill: none;
        stroke: #231f20;
        stroke-miterlimit: 10;
      }
    </style>
  </defs>
  <!-- Generator: Adobe Illustrator 28.7.2, SVG Export Plug-In . SVG Version: 1.2.0 Build 154)  -->
  <g>
    <g id="Layer_1">
      <path class="cls-1" d="M3.3,32c1.29-.33,2.57-.62,3.8-.99,1.2-.36,2.48-.78,3.25-1.36.1-.07.16-.11.26-.16l.43-.23c.29-.15.56-.32.84-.49l1.67-1,3.35-1.99,13.38-7.95,13.38-7.95,6.66-3.95c.96-.24,1.98-1,2.84-1.8.85-.85,1.57-1.92,2.07-3.15.07,1.33-.15,2.72-.73,4.04-.3.69-.66,1.27-1.1,1.87-.42.58-.99,1.19-1.62,1.66l-6.7,3.97-13.33,7.92-13.33,7.92-3.33,1.98-1.67.99c-.28.17-.56.33-.83.51l-.4.27c-.19.11-.41.22-.61.28-.82.24-1.55.28-2.26.31-.71.01-1.39,0-2.07-.08-1.35-.13-2.66-.35-3.96-.65Z"/>
      <path class="cls-1" d="M44.08,34.83c-.17-1.43-.43-2.88-.29-4.24.22-.45.57-1.76.74-2.26.94-3.02,2.83-9.1,3.77-12.12,1.04-2.55.06-4.32,1.2-6.65.19-.44.67-.68,1.02-1.01,1.1-.92,2.32-1.9,3.48-2.74-.4,1.38-.91,2.86-1.41,4.2-.19.44-.27.97-.61,1.3,0,0,.19-.37.19-.37-.24.59-.31,1.2-.31,1.84.09,1.41-.21,3.06-.69,4.33,0,0-1.89,6.06-1.89,6.06-.48,1.63-2.17,6.77-2.56,8.35-.66,1.21-1.69,2.25-2.64,3.33h0Z"/>
      <path class="cls-1" d="M44.08,30.68c.96,1.08,1.99,2.12,2.64,3.33.03.27.13.51.2.77.29.93,2.03,6.51,2.36,7.58,0,0,1.89,6.06,1.89,6.06.47,1.27.78,2.92.69,4.33,0,.64.07,1.25.31,1.84,0,0-.19-.37-.19-.37.35.33.42.86.61,1.3l.5,1.38c.32.93.63,1.87.91,2.82-1.17-.83-2.39-1.82-3.48-2.74-.35-.33-.82-.57-1.02-1.01-.37-.69-.5-1.5-.6-2.26-.09-1.62.07-2.7-.6-4.39-.94-3.02-2.83-9.1-3.77-12.12-.17-.48-.52-1.81-.74-2.26-.15-1.37.11-2.81.29-4.24h0Z"/>
      <path class="cls-1" d="M2.94,32c2.73-.56,5.48-1.11,8.28-.42.33.09.73.36,1.01.56,1.47.91,4.31,2.57,5.83,3.48,6.64,3.95,20.03,11.9,26.67,15.85,0,0,6.7,3.97,6.7,3.97.64.47,1.2,1.08,1.62,1.66,1.27,1.66,1.96,3.89,1.82,5.91-.5-1.23-1.22-2.31-2.07-3.15-.86-.8-1.88-1.56-2.84-1.8l-6.66-3.95c-6.67-3.96-20.09-11.94-26.77-15.9-1.74-1.01-4.54-2.76-6.29-3.7-1.95-1.36-4.9-1.86-7.31-2.51h0Z"/>
    </g>
    <g id="Layer_2">
      <line class="cls-2" x1="11.84" y1="32" x2="45.36" y2="32.88"/>
      <line class="cls-2" x1="16.49" y1="32" x2="18.69" y2="36.93"/>
      <line class="cls-2" x1="20.84" y1="32.24" x2="24.66" y2="40.31"/>
      <line class="cls-2" x1="25.05" y1="32.61" x2="31.43" y2="45.19"/>
      <line class="cls-2" x1="29.95" y1="32.61" x2="37.19" y2="48.07"/>
      <line class="cls-2" x1="35.78" y1="32.88" x2="41.64" y2="50.25"/>
      <path class="cls-2" d="M40.6,32.88c.03.17,5.31,19.98,5.31,19.98"/>
    </g>
  </g>
</svg>