<?xml version="1.0" encoding="UTF-8"?>
<svg xmlns="http://www.w3.org/2000/svg" version="1.1" viewBox="0 0 64 64">
  <defs>
    <style>
      .cls-1 {
        fill: #231f20;
      }
    </style>
  </defs>
  <!-- Generator: Adobe Illustrator 28.7.2, SVG Export Plug-In . SVG Version: 1.2.0 Build 154)  -->
  <g>
    <g id="Layer_1">
      <path class="cls-1" d="M16.6,24.87l.2.34.05.09c.45,0-.6,0-.49,0,0,0,0-.01,0-.01-.41-.74-.79-1.59-1.12-2.35-2.47,0,3.38-.02,2.77.01.26.42.1.83.11,1.28,0,0,0,1.37,0,1.37,0,7.85,0,19.47,0,27.36,0,0,0,2.74,0,2.74,0,0,0,.04,0,.04h0c0-.13,0,.4-.14.66-.29.48-.2.3-.33.46-.43.37-.76.67-1.27.86,0,0-1.18.51-1.18.51-.04.02-.07.03-.09.03-.03.02.06-.11-.02-.03-.22.2-.57.51-.78.7-1.03,1.1-2.79,1.58-4.17,1.46,1.32-.66,2.21-1.28,2.71-2.59.12-.23.35-.72.46-.93-.01,0,.15-.23.21-.28.59-.63,1.08-1.25,1.73-1.73,0,0,.27-.16.27-.16.03,0,.2-.15.03,0-.14.17,0-.08-.3.43-.15.26-.14.8-.14.61,0-.02,0-2.75,0-2.78,0-7.9,0-19.49,0-27.36,0,0,0-1.37,0-1.37.01-.45-.15-.86.11-1.28-.61-.03,5.24,0,2.77-.01-.33.76-.71,1.61-1.12,2.35,0,0,0,.01,0,.01.1,0-.94,0-.49,0l.05-.09.2-.34h0Z"/>
      <path class="cls-1" d="M21.94,55.91c-.26.67-.54,1.16-.82,1.66-.36.03-.7.1-1.06.15-1.05.16-3.17.5-4.22.66,0,0-1.06.17-1.06.17-.42-.4-.84-.78-1.29-1.32.26-.65.54-1.14.82-1.65l1.06-.17c1.05-.16,3.17-.5,4.22-.66.35-.06.71-.1,1.05-.18.42.39.84.77,1.29,1.33h0Z"/>
      <path class="cls-1" d="M24.03,24.87l.2.34.05.09c.45,0-.6,0-.49,0h0c-.41-.75-.79-1.6-1.12-2.36-2.47,0,3.38-.02,2.77.01.26.42.1.83.11,1.28,0,0,0,1.37,0,1.37,0,7.85,0,19.47,0,27.36,0,0,0,2.74,0,2.74,0,.29.02-.3-.14-.57-.28-.47-.2-.3-.3-.43-.1-.09-.07-.06-.07-.07,0,0,.1.06.1.06l.27.16c.65.48,1.14,1.09,1.73,1.73.05.06.22.27.21.28.14.29.33.66.46.93.5,1.31,1.4,1.93,2.71,2.59-1.38.11-3.14-.36-4.17-1.46-.18-.19-.61-.53-.78-.7-.08-.08.01.05-.02.03-.02,0-.05-.02-.09-.03l-1.18-.51c-.51-.2-.85-.49-1.27-.86-.12-.16-.05.03-.33-.46-.15-.26-.15-.79-.14-.64h0v-2.79c0-7.9,0-19.49,0-27.36,0,0,0-1.37,0-1.37.01-.45-.15-.86.11-1.28-.61-.03,5.24,0,2.77-.01-.33.76-.71,1.61-1.12,2.35,0,0,0,.01,0,.01.1,0-.94,0-.49,0l.05-.09.2-.34h0Z"/>
      <path class="cls-1" d="M18.7,55.91c.45-.56.87-.94,1.29-1.33.35.08.7.12,1.05.18,1.05.17,3.17.5,4.22.66,0,0,1.06.17,1.06.17.28.51.56,1,.82,1.65-.44.54-.86.92-1.29,1.32l-1.06-.17c-1.05-.17-3.17-.5-4.22-.66-.35-.05-.7-.12-1.06-.15-.28-.5-.57-.99-.82-1.66h0Z"/>
      <path class="cls-1" d="M24.03,39.13l-.2-.34-.05-.09c-.45,0,.6,0,.49,0h0c.41.75.79,1.6,1.12,2.36,2.47,0-3.38.02-2.77-.01-.26-.42-.1-.83-.11-1.28,0,0,0-1.37,0-1.37,0-7.85,0-19.47,0-27.36,0,0,0-2.74,0-2.74,0,0,0-.04,0-.04h0c0,.13,0-.4.14-.66.29-.48.2-.3.33-.46.43-.37.76-.67,1.27-.86,0,0,1.18-.51,1.18-.51.04-.02.07-.03.09-.03.03-.02-.06.11.02.03.22-.2.57-.51.78-.7,1.03-1.1,2.79-1.58,4.17-1.46-1.32.66-2.21,1.28-2.71,2.59-.12.23-.35.72-.46.93.01,0-.15.23-.21.28-.59.63-1.08,1.25-1.73,1.73,0,0-.27.16-.27.16-.03,0-.2.15-.03,0,.14-.17,0,.08.3-.43.15-.26.14-.8.14-.61,0,.02,0,2.75,0,2.78,0,7.9,0,19.49,0,27.36,0,0,0,1.37,0,1.37-.01.45.15.86-.11,1.28.61.03-5.24,0-2.77.01.33-.76.71-1.61,1.12-2.35,0,0,0-.01,0-.01-.1,0,.94,0,.49,0,0,0-.05.09-.05.09l-.2.34h0Z"/>
      <path class="cls-1" d="M18.7,8.09c.26-.67.54-1.16.82-1.66.36-.03.7-.1,1.06-.15,1.05-.16,3.17-.5,4.22-.66,0,0,1.06-.17,1.06-.17.42.4.84.78,1.29,1.32-.26.65-.54,1.14-.82,1.65l-1.06.17c-1.05.16-3.17.5-4.22.66-.35.06-.71.1-1.05.18-.42-.39-.84-.77-1.29-1.33h0Z"/>
      <path class="cls-1" d="M16.6,39.13l-.2-.34s-.05-.09-.05-.09c-.45,0,.6,0,.49,0,0,0,0,.01,0,.01.41.74.79,1.59,1.12,2.35,2.47,0-3.38.02-2.77-.01-.26-.42-.1-.83-.11-1.28,0,0,0-1.37,0-1.37,0-7.85,0-19.47,0-27.36,0,0,0-2.74,0-2.74,0-.29-.02.3.14.57.28.47.2.3.3.43.1.09.07.06.07.07l-.1-.06s-.27-.16-.27-.16c-.65-.48-1.14-1.09-1.73-1.73-.05-.06-.22-.27-.21-.28-.14-.29-.33-.66-.46-.93-.5-1.31-1.4-1.93-2.71-2.59,1.38-.11,3.14.36,4.17,1.46.18.19.61.53.78.7.08.08-.01-.05.02-.03.02,0,.05.02.09.03l1.18.51c.51.2.85.49,1.27.86.12.16.05-.03.33.46.15.26.15.79.14.64,0,0,0,.01,0,.01,0,0,0,.04,0,.04v2.74c0,7.9,0,19.49,0,27.36,0,0,0,1.37,0,1.37-.01.45.15.86-.11,1.28.61.03-5.24,0-2.77.01.33-.76.71-1.61,1.12-2.35,0,0,0-.01,0-.01-.1,0,.94,0,.49,0l-.05.09-.2.34h0Z"/>
      <path class="cls-1" d="M21.94,8.09c-.45.56-.87.94-1.29,1.33-.35-.08-.7-.12-1.05-.18-1.05-.17-3.17-.5-4.22-.66,0,0-1.06-.17-1.06-.17-.28-.51-.56-1-.82-1.65.44-.54.86-.92,1.29-1.32l1.06.17c1.05.17,3.17.5,4.22.66.35.05.7.12,1.06.15.28.5.57.99.82,1.66h0Z"/>
      <path class="cls-1" d="M39.97,24.87l.2.34.05.09c.44,0-.6,0-.49,0,0,0,0-.01,0-.01-.41-.74-.79-1.59-1.12-2.35-2.47,0,3.38-.02,2.77.01.26.42.1.83.11,1.28,0,0,0,1.37,0,1.37,0,7.85,0,19.47,0,27.36,0,0,0,2.74,0,2.74,0,0,0,.04,0,.04h0c0-.13,0,.4-.14.66-.29.48-.2.3-.33.46-.43.37-.76.67-1.27.86,0,0-1.18.51-1.18.51-.04.02-.07.03-.09.03-.03.02.06-.11-.02-.03-.22.2-.57.51-.78.7-1.03,1.1-2.79,1.58-4.17,1.46,1.32-.66,2.21-1.28,2.71-2.59.12-.23.35-.72.46-.93-.01,0,.15-.23.21-.28.59-.63,1.08-1.25,1.73-1.73,0,0,.27-.16.27-.16.03,0,.2-.15.03,0-.14.17,0-.08-.3.43-.15.26-.14.8-.14.61,0-.02,0-2.75,0-2.78,0-7.9,0-19.49,0-27.36,0,0,0-1.37,0-1.37.01-.45-.15-.86.11-1.28-.61-.03,5.24,0,2.77-.01-.33.76-.71,1.61-1.12,2.35,0,0,0,.01,0,.01.1,0-.94,0-.49,0l.05-.09s.2-.34.2-.34h0Z"/>
      <path class="cls-1" d="M45.3,55.91c-.26.67-.54,1.16-.82,1.66-.36.03-.7.1-1.06.15-1.05.16-3.17.5-4.22.66,0,0-1.06.17-1.06.17-.42-.4-.84-.78-1.29-1.32.26-.65.54-1.14.82-1.65l1.06-.17c1.05-.16,3.17-.5,4.22-.66.35-.06.71-.1,1.05-.18.42.39.84.77,1.29,1.33h0Z"/>
      <path class="cls-1" d="M47.4,24.87l.2.34s.05.09.05.09c.44,0-.6,0-.49,0,0,0,0-.01,0-.01-.41-.74-.79-1.59-1.12-2.35-2.47,0,3.38-.02,2.77.01.26.42.1.83.11,1.28,0,0,0,1.37,0,1.37,0,7.85,0,19.47,0,27.36,0,0,0,2.74,0,2.74,0,.29.02-.3-.14-.57-.28-.47-.2-.3-.3-.43-.1-.09-.07-.06-.07-.07l.1.06.27.16c.65.48,1.14,1.09,1.73,1.73.05.06.22.27.21.28.14.29.33.66.46.93.5,1.31,1.4,1.93,2.71,2.59-1.38.11-3.14-.36-4.17-1.46-.18-.19-.61-.53-.78-.7-.08-.08.01.05-.02.03-.02,0-.05-.02-.09-.03l-1.18-.51c-.51-.2-.85-.49-1.27-.86-.12-.16-.05.03-.33-.46-.15-.26-.15-.79-.14-.64h0v-2.79c0-7.9,0-19.49,0-27.36,0,0,0-1.37,0-1.37.01-.45-.15-.86.11-1.28-.61-.03,5.24,0,2.77-.01-.33.76-.71,1.61-1.12,2.35,0,0,0,.01,0,.01.1,0-.94,0-.49,0l.05-.09.2-.34h0Z"/>
      <path class="cls-1" d="M42.06,55.91c.45-.56.87-.94,1.29-1.33.35.08.7.12,1.05.18,1.05.17,3.17.5,4.22.66,0,0,1.06.17,1.06.17.28.51.56,1,.82,1.65-.44.54-.86.92-1.29,1.32l-1.06-.17c-1.05-.17-3.17-.5-4.22-.66-.35-.05-.7-.12-1.06-.15-.28-.5-.57-.99-.82-1.66h0Z"/>
      <path class="cls-1" d="M47.4,39.13l-.2-.34-.05-.09c-.44,0,.6,0,.49,0,0,0,0,.01,0,.01.41.74.79,1.59,1.12,2.35,2.47,0-3.38.02-2.77-.01-.26-.42-.1-.83-.11-1.28,0,0,0-1.37,0-1.37,0-7.85,0-19.47,0-27.36,0,0,0-2.74,0-2.74v-.04h0c0,.13,0-.4.14-.66.29-.48.2-.3.33-.46.43-.37.76-.67,1.27-.86,0,0,1.18-.51,1.18-.51.04-.02.07-.03.09-.03.03-.02-.06.11.02.03.22-.2.57-.51.78-.7,1.03-1.1,2.79-1.58,4.17-1.46-1.32.66-2.21,1.28-2.71,2.59-.12.23-.35.72-.46.93.01,0-.15.23-.21.28-.59.63-1.08,1.25-1.73,1.73,0,0-.27.16-.27.16-.03,0-.2.15-.03,0,.14-.17,0,.08.3-.43.15-.26.14-.8.14-.61,0,.02,0,2.75,0,2.78,0,7.9,0,19.49,0,27.36,0,0,0,1.37,0,1.37-.01.45.15.86-.11,1.28.61.03-5.24,0-2.77.01.33-.76.71-1.61,1.12-2.35,0,0,0-.01,0-.01-.1,0,.94,0,.49,0l-.05.09-.2.34h0Z"/>
      <path class="cls-1" d="M42.06,8.09c.26-.67.54-1.16.82-1.66.36-.03.7-.1,1.06-.15,1.05-.16,3.17-.5,4.22-.66,0,0,1.06-.17,1.06-.17.42.4.84.78,1.29,1.32-.26.65-.54,1.14-.82,1.65l-1.06.17c-1.05.16-3.17.5-4.22.66-.35.06-.71.1-1.05.18-.42-.39-.84-.77-1.29-1.33h0Z"/>
      <path class="cls-1" d="M39.97,39.13l-.2-.34-.05-.09c-.44,0,.6,0,.49,0h0c.41.75.79,1.6,1.12,2.36,2.47,0-3.38.02-2.77-.01-.26-.42-.1-.83-.11-1.28,0,0,0-1.37,0-1.37,0-7.85,0-19.47,0-27.36,0,0,0-2.74,0-2.74,0-.29-.02.3.14.57.28.47.2.3.3.43.1.09.07.06.07.07l-.1-.06s-.27-.16-.27-.16c-.65-.48-1.14-1.09-1.73-1.73-.05-.06-.22-.27-.21-.28-.14-.29-.33-.66-.46-.93-.5-1.31-1.4-1.93-2.71-2.59,1.38-.11,3.14.36,4.17,1.46.18.19.61.53.78.7.08.08-.01-.05.02-.03.02,0,.05.02.09.03l1.18.51c.51.2.85.49,1.27.86.12.16.05-.03.33.46.15.26.15.79.14.64h0s0,.05,0,.05v2.74c0,7.9,0,19.49,0,27.36,0,0,0,1.37,0,1.37-.01.45.15.86-.11,1.28.61.03-5.24,0-2.77.01.33-.76.71-1.61,1.12-2.35,0,0,0-.01,0-.01-.1,0,.94,0,.49,0,0,0-.05.09-.05.09l-.2.34h0Z"/>
      <path class="cls-1" d="M45.3,8.09c-.45.56-.87.94-1.29,1.33-.35-.08-.7-.12-1.05-.18-1.05-.17-3.17-.5-4.22-.66,0,0-1.06-.17-1.06-.17-.28-.51-.56-1-.82-1.65.44-.54.86-.92,1.29-1.32l1.06.17c1.05.17,3.17.5,4.22.66.35.05.7.12,1.06.15.28.5.57.99.82,1.66h0Z"/>
    </g>
  </g>
</svg>