<?xml version="1.0" encoding="UTF-8"?>
<svg xmlns="http://www.w3.org/2000/svg" version="1.1" viewBox="0 0 64 128">
  <defs>
    <style>
      .cls-1 {
        fill: #231f20;
      }

      .cls-2 {
        fill: none;
        stroke: #231f20;
        stroke-miterlimit: 10;
      }
    </style>
  </defs>
  <!-- Generator: Adobe Illustrator 28.7.2, SVG Export Plug-In . SVG Version: 1.2.0 Build 154)  -->
  <g>
    <g id="Layer_1">
      <path class="cls-1" d="M32,9c.64,2.41,1.15,5.36,2.51,7.31.93,1.73,2.69,4.55,3.7,6.29,3.96,6.67,11.94,20.1,15.9,26.77,0,0,3.95,6.66,3.95,6.66.24.96,1,1.98,1.8,2.84.85.85,1.92,1.57,3.15,2.07-2.02.14-4.25-.55-5.91-1.82-.58-.42-1.19-.99-1.66-1.62,0,0-3.97-6.7-3.97-6.7-3.95-6.65-11.9-20.02-15.85-26.67-.91-1.52-2.56-4.34-3.48-5.83-.19-.27-.47-.68-.56-1.01-.69-2.81-.14-5.55.42-8.28h0Z"/>
      <path class="cls-1" d="M29.17,49.77c1.43-.17,2.88-.43,4.24-.29.45.22,1.76.57,2.26.74,3.02.94,9.1,2.83,12.12,3.77,2.55,1.04,4.32.06,6.65,1.2.44.19.68.67,1.01,1.02.92,1.1,1.9,2.32,2.74,3.48-1.38-.4-2.86-.91-4.2-1.41-.44-.19-.97-.27-1.3-.61,0,0,.37.19.37.19-.59-.24-1.2-.31-1.84-.31-1.41.09-3.06-.21-4.33-.69,0,0-6.06-1.89-6.06-1.89-1.63-.48-6.77-2.17-8.35-2.56-1.21-.66-2.25-1.69-3.33-2.64h0Z"/>
      <path class="cls-1" d="M33.32,49.77c-1.08.96-2.12,1.99-3.33,2.64-.27.03-.51.13-.77.2-.93.29-6.51,2.03-7.58,2.36,0,0-6.06,1.89-6.06,1.89-1.27.47-2.92.78-4.33.69-.64,0-1.25.07-1.84.31,0,0,.37-.19.37-.19-.33.35-.86.42-1.3.61l-1.38.5c-.93.32-1.87.63-2.82.91.83-1.17,1.82-2.39,2.74-3.48.33-.35.57-.82,1.01-1.02.69-.37,1.5-.5,2.26-.6,1.62-.09,2.7.07,4.39-.6,3.02-.94,9.1-2.83,12.12-3.77.48-.17,1.81-.52,2.26-.74,1.37-.15,2.81.11,4.24.29h0Z"/>
      <path class="cls-1" d="M32,8.64c.56,2.73,1.11,5.48.42,8.28-.09.33-.36.73-.56,1.01-.91,1.47-2.57,4.31-3.48,5.83-3.95,6.64-11.9,20.03-15.85,26.67,0,0-3.97,6.7-3.97,6.7-.47.64-1.08,1.2-1.66,1.62-1.66,1.27-3.89,1.96-5.91,1.82,1.23-.5,2.31-1.22,3.15-2.07.8-.86,1.56-1.88,1.8-2.84l3.95-6.66c3.96-6.67,11.94-20.09,15.9-26.77,1.01-1.74,2.76-4.54,3.7-6.29,1.36-1.95,1.86-4.9,2.51-7.31h0Z"/>
      <line class="cls-2" x1="32" y1="17.53" x2="31.12" y2="51.05"/>
      <line class="cls-2" x1="32" y1="22.18" x2="27.07" y2="24.38"/>
      <line class="cls-2" x1="31.76" y1="26.53" x2="23.69" y2="30.36"/>
      <line class="cls-2" x1="31.39" y1="30.74" x2="18.81" y2="37.13"/>
      <line class="cls-2" x1="31.39" y1="35.64" x2="15.93" y2="42.88"/>
      <line class="cls-2" x1="31.12" y1="41.48" x2="13.75" y2="47.34"/>
      <path class="cls-2" d="M31.12,46.29c-.17.03-19.98,5.31-19.98,5.31"/>
      <path class="cls-1" d="M32,119c-.56-2.73-1.11-5.48-.42-8.28.09-.33.36-.73.56-1.01.91-1.47,2.57-4.31,3.48-5.83,3.95-6.64,11.9-20.03,15.85-26.67,0,0,3.97-6.7,3.97-6.7.47-.64,1.08-1.2,1.66-1.62,1.66-1.27,3.89-1.96,5.91-1.82-1.23.5-2.31,1.22-3.15,2.07-.8.86-1.56,1.88-1.8,2.84l-3.95,6.66c-3.96,6.67-11.94,20.09-15.9,26.77-1.01,1.74-2.76,4.54-3.7,6.29-1.36,1.95-1.86,4.9-2.51,7.31h0Z"/>
      <path class="cls-1" d="M29.17,78.23c1.08-.96,2.12-1.99,3.33-2.64.27-.03.51-.13.77-.2.93-.29,6.51-2.03,7.58-2.36,0,0,6.06-1.89,6.06-1.89,1.27-.47,2.92-.78,4.33-.69.64,0,1.25-.07,1.84-.31,0,0-.37.19-.37.19.33-.35.86-.42,1.3-.61l1.38-.5c.93-.32,1.87-.63,2.82-.91-.83,1.17-1.82,2.39-2.74,3.48-.33.35-.57.82-1.01,1.02-.69.37-1.5.5-2.26.6-1.62.09-2.7-.07-4.39.6-3.02.94-9.1,2.83-12.12,3.77-.48.17-1.81.52-2.26.74-1.37.15-2.81-.11-4.24-.29h0Z"/>
      <path class="cls-1" d="M33.32,78.23c-1.43.17-2.88.43-4.24.29-.45-.22-1.76-.57-2.26-.74-3.02-.94-9.1-2.83-12.12-3.77-2.55-1.04-4.32-.06-6.65-1.2-.44-.19-.68-.67-1.01-1.02-.92-1.1-1.9-2.32-2.74-3.48,1.38.4,2.86.91,4.2,1.41.44.19.97.27,1.3.61,0,0-.37-.19-.37-.19.59.24,1.2.31,1.84.31,1.41-.09,3.06.21,4.33.69,0,0,6.06,1.89,6.06,1.89,1.63.48,6.77,2.17,8.35,2.56,1.21.66,2.25,1.69,3.33,2.64h0Z"/>
      <path class="cls-1" d="M32,119.36c-.64-2.41-1.15-5.36-2.51-7.31-.93-1.73-2.69-4.55-3.7-6.29-3.96-6.67-11.94-20.1-15.9-26.77,0,0-3.95-6.66-3.95-6.66-.24-.96-1-1.98-1.8-2.84-.85-.85-1.92-1.57-3.15-2.07,2.02-.14,4.25.55,5.91,1.82.58.42,1.19.99,1.66,1.62l3.97,6.7c3.95,6.65,11.9,20.02,15.85,26.67.91,1.52,2.56,4.34,3.48,5.83.19.27.47.68.56,1.01.69,2.81.14,5.55-.42,8.28h0Z"/>
      <line class="cls-2" x1="32" y1="110.47" x2="31.12" y2="76.95"/>
      <line class="cls-2" x1="32" y1="105.82" x2="27.07" y2="103.62"/>
      <line class="cls-2" x1="31.76" y1="101.47" x2="23.69" y2="97.64"/>
      <line class="cls-2" x1="31.39" y1="97.26" x2="18.81" y2="90.87"/>
      <line class="cls-2" x1="31.39" y1="92.36" x2="15.93" y2="85.12"/>
      <line class="cls-2" x1="31.12" y1="86.52" x2="13.75" y2="80.66"/>
      <path class="cls-2" d="M31.12,81.71c-.17-.03-19.98-5.31-19.98-5.31"/>
    </g>
  </g>
</svg>