<?xml version="1.0" encoding="UTF-8"?>
<svg xmlns="http://www.w3.org/2000/svg" version="1.1" viewBox="0 0 64 64">
  <defs>
    <style>
      .cls-1 {
        fill: #231f20;
      }

      .cls-2 {
        fill: none;
        stroke: #231f20;
        stroke-miterlimit: 10;
      }
    </style>
  </defs>
  <!-- Generator: Adobe Illustrator 28.7.2, SVG Export Plug-In . SVG Version: 1.2.0 Build 154)  -->
  <g>
    <g id="Layer_1">
      <path class="cls-1" d="M2.08,32c1-.55,2.6-1.06,3.23-1.87.05-.09.18-.1.27-.15.27-.13.99-.58,1.26-.74,4.14-2.46,10.98-6.52,15.13-8.99,0,0,3.33-1.98,3.33-1.98,1.05.04,2.19-.87,2.83-1.83.38,1.58-.08,3.22-1.36,4.45-4.8,2.85-11.9,7.07-16.72,9.93,0,0-3.5,2.07-3.5,2.07-1.8.25-2.96-.28-4.46-.9h0Z"/>
      <path class="cls-1" d="M22.53,33.42c-.34-.75-.83-1.64-.88-2.36.15-.21.29-.88.39-1.13.47-1.52,1.42-4.57,1.89-6.08.26-.77.25-.9.24-1.51,0-.68.11-1.44.45-2.05.06-.25.4-.3.61-.44l.72-.36c.5-.23,1.01-.45,1.54-.65,0,.82-.08,1.67-.19,2.47-.06.25,0,.58-.21.72l.19-.37c-.16.31-.12.73-.12,1.07.03.71-.24,1.6-.38,2l-.95,3.04c-.23.82-1.12,3.4-1.27,4.19-.44.57-1.35,1.02-2.06,1.44h0Z"/>
      <path class="cls-1" d="M22.53,31.34c.71.43,1.62.88,2.06,1.44.14.78,1.04,3.38,1.27,4.19,0,0,.95,3.04.95,3.04.14.4.41,1.28.38,2,0,.34-.04.76.12,1.07,0,0-.19-.37-.19-.37.21.14.15.47.21.72.11.8.18,1.65.19,2.47-.54-.2-1.05-.42-1.54-.65l-.72-.36c-.21-.14-.55-.19-.61-.44-.34-.6-.45-1.37-.45-2.05,0-.61.02-.73-.24-1.51-.47-1.51-1.42-4.57-1.89-6.08-.09-.24-.24-.92-.39-1.13.04-.72.54-1.6.88-2.36h0Z"/>
      <path class="cls-1" d="M1.89,32c1.5-.62,2.66-1.14,4.46-.9,0,0,3.5,2.07,3.5,2.07,4.83,2.87,11.91,7.08,16.72,9.93,1.28,1.23,1.75,2.88,1.36,4.45-.64-.96-1.78-1.87-2.83-1.83,0,0-3.33-1.98-3.33-1.98-4.16-2.47-10.99-6.53-15.13-8.99-.39-.22-1.08-.67-1.49-.84-.03,0-.02-.01-.04-.05-.63-.81-2.22-1.32-3.23-1.87h0Z"/>
      <line class="cls-2" x1="6.36" y1="32" x2="23.17" y2="32.44"/>
      <line class="cls-2" x1="8.69" y1="32" x2="9.79" y2="34.47"/>
      <line class="cls-2" x1="10.87" y1="32.12" x2="12.79" y2="36.17"/>
      <line class="cls-2" x1="12.98" y1="32.3" x2="16.19" y2="38.62"/>
      <line class="cls-2" x1="15.44" y1="32.3" x2="19.07" y2="40.06"/>
      <line class="cls-2" x1="18.37" y1="32.44" x2="21.31" y2="41.15"/>
      <path class="cls-2" d="M20.78,32.44c.01.08,2.66,10.02,2.66,10.02"/>
      <path class="cls-1" d="M26.59,36.23l.34-.2.09-.05c0-.44,0,.6,0,.49h-.01c-.74.42-1.59.8-2.35,1.13,0,2.47-.02-3.38.01-2.77.42-.26.83-.1,1.28-.11,0,0,1.37,0,1.37,0,7.85,0,19.47,0,27.36,0,0,0,2.74,0,2.74,0h.05c-.14,0,.38,0,.65.14.48.29.3.2.46.33.37.43.67.76.86,1.27,0,0,.51,1.18.51,1.18.02.04.03.07.03.09.02.03-.11-.06-.03.02.2.22.51.57.7.78,1.1,1.03,1.58,2.79,1.46,4.17-.66-1.32-1.28-2.21-2.59-2.71-.23-.12-.72-.35-.93-.46,0,.01-.23-.15-.28-.21-.63-.59-1.25-1.08-1.73-1.73,0,0-.16-.27-.16-.27,0-.03-.15-.2,0-.03.17.14-.08,0,.43.3.26.15.8.14.61.14-.02,0-2.75,0-2.78,0-7.9,0-19.49,0-27.36,0,0,0-1.37,0-1.37,0-.45-.01-.86.15-1.28-.11-.03.61,0-5.24-.01-2.77.76.33,1.61.71,2.35,1.12,0,0,.01,0,.01,0,0-.1,0,.94,0,.49l-.09-.05s-.34-.2-.34-.2h0Z"/>
      <path class="cls-1" d="M57.63,30.9c.67.26,1.16.54,1.66.82.03.36.1.7.15,1.06.16,1.05.5,3.17.66,4.22,0,0,.17,1.06.17,1.06-.4.42-.78.84-1.32,1.29-.65-.26-1.14-.54-1.65-.82l-.17-1.06c-.16-1.05-.5-3.17-.66-4.22-.06-.35-.1-.71-.18-1.05.39-.42.77-.84,1.33-1.29h0Z"/>
      <path class="cls-1" d="M26.59,28.81s.34-.2.34-.2l.09-.05c0-.45,0,.6,0,.49h-.01c-.74.42-1.59.8-2.35,1.13,0,2.47-.02-3.38.01-2.77.42-.26.83-.1,1.28-.11,0,0,1.37,0,1.37,0,7.85,0,19.47,0,27.36,0,0,0,2.74,0,2.74,0,.29,0-.3-.02-.57.14-.47.28-.3.2-.43.3-.09.1-.06.07-.07.07,0,0,.06-.1.06-.1l.16-.27c.48-.65,1.09-1.14,1.73-1.73.06-.05.27-.22.28-.21.29-.14.66-.33.93-.46,1.31-.5,1.93-1.4,2.59-2.71.11,1.38-.36,3.14-1.46,4.17-.19.18-.53.61-.7.78-.08.08.05-.01.03.02,0,.02-.02.05-.03.09l-.51,1.18c-.2.51-.49.85-.86,1.27-.16.12.03.05-.46.33-.26.15-.79.15-.64.14h-2.79c-7.9,0-19.49,0-27.36,0,0,0-1.37,0-1.37,0-.45-.01-.86.15-1.28-.11-.03.61,0-5.24-.01-2.77.76.33,1.61.71,2.35,1.12,0,0,.01,0,.01,0,0-.1,0,.94,0,.49l-.09-.05-.34-.2h0Z"/>
      <path class="cls-1" d="M57.63,34.14c-.56-.45-.94-.87-1.33-1.29.08-.35.12-.7.18-1.05.17-1.05.5-3.17.66-4.22,0,0,.17-1.06.17-1.06.51-.28,1-.56,1.65-.82.54.44.92.86,1.32,1.29l-.17,1.06c-.17,1.05-.5,3.17-.66,4.22-.05.35-.12.7-.15,1.06-.5.28-.99.57-1.66.82h0Z"/>
    </g>
  </g>
</svg>