<?xml version="1.0" encoding="UTF-8"?>
<svg xmlns="http://www.w3.org/2000/svg" version="1.1" viewBox="0 0 64 64">
  <defs>
    <style>
      .cls-1, .cls-2, .cls-3 {
        fill: #fff;
      }

      .cls-1, .cls-2, .cls-4, .cls-5 {
        stroke: #231f20;
        stroke-miterlimit: 10;
      }

      .cls-1, .cls-4 {
        stroke-width: 3px;
      }

      .cls-6 {
        fill: #231f20;
      }

      .cls-4, .cls-5 {
        fill: none;
      }
    </style>
  </defs>
  <!-- Generator: Adobe Illustrator 28.7.2, SVG Export Plug-In . SVG Version: 1.2.0 Build 154)  -->
  <g>
    <g id="Layer_1">
      <circle class="cls-4" cx="32" cy="32" r="26.13"/>
      <circle class="cls-1" cx="32" cy="32" r="5.1"/>
      <line class="cls-2" x1="32" y1="26.9" x2="32" y2="10.21"/>
      <line class="cls-2" x1="32" y1="37.1" x2="32" y2="53.79"/>
      <line class="cls-2" x1="36.74" y1="33.86" x2="51.41" y2="42.13"/>
      <line class="cls-2" x1="36.32" y1="29.25" x2="51.12" y2="20.89"/>
      <line class="cls-2" x1="27.2" y1="34.31" x2="12.85" y2="42.41"/>
      <line class="cls-2" x1="27.62" y1="29.69" x2="12.77" y2="21.31"/>
      <circle class="cls-5" cx="32" cy="32" r="21.79"/>
    </g>
    <g id="Layer_2">
      <g>
        <g>
          <line class="cls-3" x1="35.69" y1="58.16" x2="36.13" y2="61.3"/>
          <path class="cls-6" d="M35.69,58.16c.62.05,1.07.12,1.52.19-.01.13.03.26.04.39l.11.78c.03.26.13.93.17,1.18-.42.19-.83.38-1.4.6-.6-.05-1.05-.12-1.51-.19-.04-.25-.13-.92-.17-1.18,0,0-.11-.78-.11-.78-.02-.13-.02-.26-.07-.39.41-.19.83-.38,1.41-.6h0Z"/>
        </g>
        <g>
          <line class="cls-3" x1="40.72" y1="56.93" x2="41.77" y2="59.93"/>
          <path class="cls-6" d="M40.72,56.93c.62-.08,1.07-.1,1.53-.12.02.13.08.25.12.38l.26.75c.08.25.31.88.39,1.12-.38.27-.74.54-1.25.86-.6.07-1.05.09-1.52.11-.09-.23-.3-.88-.39-1.12,0,0-.26-.75-.26-.75-.05-.12-.07-.25-.14-.37.37-.27.73-.54,1.27-.86h0Z"/>
        </g>
        <g>
          <line class="cls-3" x1="45.42" y1="54.75" x2="47.03" y2="57.48"/>
          <path class="cls-6" d="M45.42,54.75c.59-.2,1.03-.3,1.48-.41.04.13.13.23.19.35l.4.68c.13.23.48.81.6,1.02-.32.34-.62.67-1.06,1.09-.57.19-1.01.29-1.47.4-.13-.21-.47-.8-.6-1.02,0,0-.4-.68-.4-.68-.07-.11-.12-.24-.21-.33.31-.34.62-.67,1.08-1.09h0Z"/>
        </g>
        <g>
          <line class="cls-3" x1="49.6" y1="51.7" x2="51.71" y2="54.06"/>
          <path class="cls-6" d="M49.6,51.7c.54-.31.96-.5,1.37-.69.07.12.17.2.25.31l.53.59c.17.2.63.7.79.89-.24.4-.48.78-.83,1.27-.53.29-.94.48-1.36.68-.17-.18-.62-.7-.79-.89,0,0-.53-.59-.53-.59-.09-.09-.17-.21-.28-.29.24-.39.47-.78.84-1.28h0Z"/>
        </g>
        <g>
          <line class="cls-3" x1="53.11" y1="47.88" x2="55.64" y2="49.79"/>
          <path class="cls-6" d="M53.11,47.88c.47-.41.84-.68,1.21-.95.09.1.21.17.31.25l.63.48c.21.16.75.56.95.72-.16.44-.32.86-.57,1.41-.46.39-.83.66-1.2.93-.2-.15-.74-.56-.95-.72,0,0-.63-.48-.63-.48-.11-.07-.2-.17-.33-.23.16-.43.31-.85.57-1.42h0Z"/>
        </g>
        <g>
          <line class="cls-3" x1="55.8" y1="43.46" x2="58.65" y2="44.84"/>
          <path class="cls-6" d="M55.8,43.46c.38-.49.69-.83,1-1.16.11.08.23.12.35.19l.71.34c.23.12.85.4,1.07.52-.07.46-.14.91-.28,1.49-.37.47-.68.81-.99,1.15-.23-.1-.84-.41-1.07-.52,0,0-.71-.34-.71-.34-.12-.05-.23-.13-.36-.16.07-.45.14-.9.29-1.51h0Z"/>
        </g>
        <g>
          <line class="cls-3" x1="57.58" y1="38.6" x2="60.65" y2="39.39"/>
          <path class="cls-6" d="M57.58,38.6c.28-.56.52-.95.75-1.34.12.06.25.07.38.11l.77.2c.25.07.91.23,1.15.3.02.46.04.92.02,1.52-.27.54-.51.92-.75,1.32-.24-.06-.9-.24-1.15-.3,0,0-.77-.2-.77-.2-.13-.03-.25-.08-.39-.08-.02-.46-.04-.91-.01-1.53h0Z"/>
        </g>
        <g>
          <line class="cls-3" x1="58.37" y1="33.48" x2="61.54" y2="33.66"/>
          <path class="cls-6" d="M58.37,33.48c.17-.6.32-1.03.48-1.46.13.04.26.02.39.04l.79.04c.26.02.94.05,1.19.07.11.45.21.89.31,1.49-.16.58-.32,1.01-.48,1.44-.25-.01-.93-.05-1.19-.07,0,0-.79-.04-.79-.04-.13,0-.26-.03-.4,0-.11-.44-.21-.88-.31-1.5h0Z"/>
        </g>
        <g>
          <line class="cls-3" x1="58.16" y1="28.31" x2="61.3" y2="27.87"/>
          <path class="cls-6" d="M58.16,28.31c.05-.62.12-1.07.19-1.52.13.01.26-.03.39-.04l.78-.11c.26-.03.93-.13,1.18-.17.19.42.38.83.6,1.4-.05.6-.12,1.05-.19,1.51-.25.04-.92.13-1.18.17,0,0-.78.11-.78.11-.13.02-.26.02-.39.07-.19-.41-.38-.83-.6-1.41h0Z"/>
        </g>
        <g>
          <line class="cls-3" x1="56.93" y1="23.28" x2="59.93" y2="22.23"/>
          <path class="cls-6" d="M56.93,23.28c-.08-.62-.1-1.07-.12-1.53.13-.02.25-.08.38-.12l.75-.26c.25-.08.88-.31,1.12-.39.27.38.54.74.86,1.25.07.6.09,1.05.11,1.52-.23.09-.88.3-1.12.39,0,0-.75.26-.75.26-.12.05-.25.07-.37.14-.27-.37-.54-.73-.86-1.27h0Z"/>
        </g>
        <g>
          <line class="cls-3" x1="54.75" y1="18.58" x2="57.48" y2="16.97"/>
          <path class="cls-6" d="M54.75,18.58c-.2-.59-.3-1.03-.41-1.48.13-.04.23-.13.35-.19l.68-.4c.23-.13.81-.48,1.02-.6.34.32.67.62,1.09,1.06.19.57.29,1.01.4,1.47-.21.13-.8.47-1.02.6,0,0-.68.4-.68.4-.11.07-.24.12-.33.21-.34-.31-.67-.62-1.09-1.08h0Z"/>
        </g>
        <g>
          <line class="cls-3" x1="51.7" y1="14.4" x2="54.06" y2="12.29"/>
          <path class="cls-6" d="M51.7,14.4c-.31-.54-.5-.96-.69-1.37.12-.07.2-.17.31-.25l.59-.53c.2-.17.7-.63.89-.79.4.24.78.48,1.27.83.29.53.48.94.68,1.36-.18.17-.7.62-.89.79,0,0-.59.53-.59.53-.09.09-.21.17-.29.28-.39-.24-.78-.47-1.28-.84h0Z"/>
        </g>
        <g>
          <line class="cls-3" x1="47.88" y1="10.9" x2="49.79" y2="8.36"/>
          <path class="cls-6" d="M47.88,10.9c-.41-.47-.68-.84-.95-1.21.1-.09.17-.21.25-.31l.48-.63c.16-.21.56-.75.72-.95.44.16.86.32,1.41.57.39.46.66.83.93,1.2-.15.2-.56.74-.72.95,0,0-.48.63-.48.63-.07.11-.17.2-.23.33-.43-.16-.85-.31-1.42-.57h0Z"/>
        </g>
        <g>
          <line class="cls-3" x1="43.46" y1="8.2" x2="44.84" y2="5.35"/>
          <path class="cls-6" d="M43.46,8.2c-.49-.38-.83-.69-1.16-1,.08-.11.12-.23.19-.35l.34-.71c.12-.23.4-.85.52-1.07.46.07.91.14,1.49.28.47.37.81.68,1.15.99-.1.23-.41.84-.52,1.07,0,0-.34.71-.34.71-.05.12-.13.23-.16.36-.45-.07-.9-.14-1.51-.29h0Z"/>
        </g>
        <g>
          <line class="cls-3" x1="38.6" y1="6.42" x2="39.39" y2="3.35"/>
          <path class="cls-6" d="M38.6,6.42c-.56-.28-.95-.52-1.34-.75.06-.12.07-.25.11-.38l.2-.77c.07-.25.23-.91.3-1.15.46-.02.92-.04,1.52-.02.54.27.92.51,1.32.75-.06.24-.24.9-.3,1.15,0,0-.2.77-.2.77-.03.13-.08.25-.08.39-.46.02-.91.04-1.53.01h0Z"/>
        </g>
        <g>
          <line class="cls-3" x1="33.48" y1="5.63" x2="33.66" y2="2.46"/>
          <path class="cls-6" d="M33.48,5.63c-.6-.17-1.03-.32-1.46-.48.04-.13.02-.26.04-.39l.04-.79c.02-.26.05-.94.07-1.19.45-.11.89-.21,1.49-.31.58.16,1.01.32,1.44.48-.01.25-.05.93-.07,1.19,0,0-.04.79-.04.79,0,.13-.03.26,0,.4-.44.11-.88.21-1.5.31h0Z"/>
        </g>
        <g>
          <line class="cls-3" x1="28.31" y1="5.84" x2="27.87" y2="2.7"/>
          <path class="cls-6" d="M28.31,5.84c-.62-.05-1.07-.12-1.52-.19.01-.13-.03-.26-.04-.39l-.11-.78c-.03-.26-.13-.93-.17-1.18.42-.19.83-.38,1.4-.6.6.05,1.05.12,1.51.19.04.25.13.92.17,1.18,0,0,.11.78.11.78.02.13.02.26.07.39-.41.19-.83.38-1.41.6h0Z"/>
        </g>
        <g>
          <line class="cls-3" x1="23.28" y1="7.07" x2="22.23" y2="4.07"/>
          <path class="cls-6" d="M23.28,7.07c-.62.08-1.07.1-1.53.12-.02-.13-.08-.25-.12-.38l-.26-.75c-.08-.25-.31-.88-.39-1.12.38-.27.74-.54,1.25-.86.6-.07,1.05-.09,1.52-.11.09.23.3.88.39,1.12,0,0,.26.75.26.75.05.12.07.25.14.37-.37.27-.73.54-1.27.86h0Z"/>
        </g>
        <g>
          <line class="cls-3" x1="18.58" y1="9.25" x2="16.97" y2="6.52"/>
          <path class="cls-6" d="M18.58,9.25c-.59.2-1.03.3-1.48.41-.04-.13-.13-.23-.19-.35l-.4-.68c-.13-.23-.48-.81-.6-1.02.32-.34.62-.67,1.06-1.09.57-.19,1.01-.29,1.47-.4.13.21.47.8.6,1.02,0,0,.4.68.4.68.07.11.12.24.21.33-.31.34-.62.67-1.08,1.09h0Z"/>
        </g>
        <g>
          <line class="cls-3" x1="14.4" y1="12.3" x2="12.29" y2="9.94"/>
          <path class="cls-6" d="M14.4,12.3c-.54.31-.96.5-1.37.69-.07-.12-.17-.2-.25-.31l-.53-.59c-.17-.2-.63-.7-.79-.89.24-.4.48-.78.83-1.27.53-.29.94-.48,1.36-.68.17.18.62.7.79.89,0,0,.53.59.53.59.09.09.17.21.28.29-.24.39-.47.78-.84,1.28h0Z"/>
        </g>
        <g>
          <line class="cls-3" x1="10.9" y1="16.12" x2="8.36" y2="14.21"/>
          <path class="cls-6" d="M10.9,16.12c-.47.41-.84.68-1.21.95-.09-.1-.21-.17-.31-.25l-.63-.48c-.21-.16-.75-.56-.95-.72.16-.44.32-.86.57-1.41.46-.39.83-.66,1.2-.93.2.15.74.56.95.72,0,0,.63.48.63.48.11.07.2.17.33.23-.16.43-.31.85-.57,1.42h0Z"/>
        </g>
        <g>
          <line class="cls-3" x1="8.2" y1="20.54" x2="5.35" y2="19.16"/>
          <path class="cls-6" d="M8.2,20.54c-.38.49-.69.83-1,1.16-.11-.08-.23-.12-.35-.19l-.71-.34c-.23-.12-.85-.4-1.07-.52.07-.46.14-.91.28-1.49.37-.47.68-.81.99-1.15.23.1.84.41,1.07.52,0,0,.71.34.71.34.12.05.23.13.36.16-.07.45-.14.9-.29,1.51h0Z"/>
        </g>
        <g>
          <line class="cls-3" x1="6.42" y1="25.4" x2="3.35" y2="24.61"/>
          <path class="cls-6" d="M6.42,25.4c-.28.56-.52.95-.75,1.34-.12-.06-.25-.07-.38-.11l-.77-.2c-.25-.07-.91-.23-1.15-.3-.02-.46-.04-.92-.02-1.52.27-.54.51-.92.75-1.32.24.06.9.24,1.15.3,0,0,.77.2.77.2.13.03.25.08.39.08.02.46.04.91.01,1.53h0Z"/>
        </g>
        <g>
          <line class="cls-3" x1="5.63" y1="30.52" x2="2.46" y2="30.34"/>
          <path class="cls-6" d="M5.63,30.52c-.17.6-.32,1.03-.48,1.46-.13-.04-.26-.02-.39-.04l-.79-.04c-.26-.02-.94-.05-1.19-.07-.11-.45-.21-.89-.31-1.49.16-.58.32-1.01.48-1.44.25.01.93.05,1.19.07,0,0,.79.04.79.04.13,0,.26.03.4,0,.11.44.21.88.31,1.5h0Z"/>
        </g>
        <g>
          <line class="cls-3" x1="5.84" y1="35.69" x2="2.7" y2="36.13"/>
          <path class="cls-6" d="M5.84,35.69c-.05.62-.12,1.07-.19,1.52-.13-.01-.26.03-.39.04l-.78.11c-.26.03-.93.13-1.18.17-.19-.42-.38-.83-.6-1.4.05-.6.12-1.05.19-1.51.25-.04.92-.13,1.18-.17,0,0,.78-.11.78-.11.13-.02.26-.02.39-.07.19.41.38.83.6,1.41h0Z"/>
        </g>
        <g>
          <line class="cls-3" x1="7.07" y1="40.72" x2="4.07" y2="41.77"/>
          <path class="cls-6" d="M7.07,40.72c.08.62.1,1.07.12,1.53-.13.02-.25.08-.38.12l-.75.26c-.25.08-.88.31-1.12.39-.27-.38-.54-.74-.86-1.25-.07-.6-.09-1.05-.11-1.52.23-.09.88-.3,1.12-.39,0,0,.75-.26.75-.26.12-.05.25-.07.37-.14.27.37.54.73.86,1.27h0Z"/>
        </g>
        <g>
          <line class="cls-3" x1="9.25" y1="45.42" x2="6.52" y2="47.03"/>
          <path class="cls-6" d="M9.25,45.42c.2.59.3,1.03.41,1.48-.13.04-.23.13-.35.19l-.68.4c-.23.13-.81.48-1.02.6-.34-.32-.67-.62-1.09-1.06-.19-.57-.29-1.01-.4-1.47.21-.13.8-.47,1.02-.6,0,0,.68-.4.68-.4.11-.07.24-.12.33-.21.34.31.67.62,1.09,1.08h0Z"/>
        </g>
        <g>
          <line class="cls-3" x1="12.3" y1="49.6" x2="9.94" y2="51.71"/>
          <path class="cls-6" d="M12.3,49.6c.31.54.5.96.69,1.37-.12.07-.2.17-.31.25l-.59.53c-.2.17-.7.63-.89.79-.4-.24-.78-.48-1.27-.83-.29-.53-.48-.94-.68-1.36.18-.17.7-.62.89-.79,0,0,.59-.53.59-.53.09-.09.21-.17.29-.28.39.24.78.47,1.28.84h0Z"/>
        </g>
        <g>
          <line class="cls-3" x1="16.12" y1="53.11" x2="14.21" y2="55.64"/>
          <path class="cls-6" d="M16.12,53.11c.41.47.68.84.95,1.21-.1.09-.17.21-.25.31l-.48.63c-.16.21-.56.75-.72.95-.44-.16-.86-.32-1.41-.57-.39-.46-.66-.83-.93-1.2.15-.2.56-.74.72-.95,0,0,.48-.63.48-.63.07-.11.17-.2.23-.33.43.16.85.31,1.42.57h0Z"/>
        </g>
        <g>
          <line class="cls-3" x1="20.54" y1="55.8" x2="19.16" y2="58.65"/>
          <path class="cls-6" d="M20.54,55.8c.49.38.83.69,1.16,1-.08.11-.12.23-.19.35l-.34.71c-.12.23-.4.85-.52,1.07-.46-.07-.91-.14-1.49-.28-.47-.37-.81-.68-1.15-.99.1-.23.41-.84.52-1.07,0,0,.34-.71.34-.71.05-.12.13-.23.16-.36.45.07.9.14,1.51.29h0Z"/>
        </g>
        <g>
          <line class="cls-3" x1="25.4" y1="57.58" x2="24.61" y2="60.65"/>
          <path class="cls-6" d="M25.4,57.58c.56.28.95.52,1.34.75-.06.12-.07.25-.11.38l-.2.77c-.07.25-.23.91-.3,1.15-.46.02-.92.04-1.52.02-.54-.27-.92-.51-1.32-.75.06-.24.24-.9.3-1.15,0,0,.2-.77.2-.77.03-.13.08-.25.08-.39.46-.02.91-.04,1.53-.01h0Z"/>
        </g>
        <g>
          <line class="cls-3" x1="30.52" y1="58.37" x2="30.34" y2="61.54"/>
          <path class="cls-6" d="M30.52,58.37c.6.17,1.03.32,1.46.48-.04.13-.02.26-.04.39l-.04.79c-.02.26-.05.94-.07,1.19-.45.11-.89.21-1.49.31-.58-.16-1.01-.32-1.44-.48.01-.25.05-.93.07-1.19,0,0,.04-.79.04-.79,0-.13.03-.26,0-.4.44-.11.88-.21,1.5-.31h0Z"/>
        </g>
      </g>
    </g>
  </g>
</svg>