<?xml version="1.0" encoding="UTF-8"?>
<svg xmlns="http://www.w3.org/2000/svg" version="1.1" viewBox="0 0 64 64">
  <defs>
    <style>
      .cls-1 {
        fill: #fff;
      }

      .cls-1, .cls-2, .cls-3 {
        stroke: #231f20;
        stroke-miterlimit: 10;
      }

      .cls-4, .cls-2, .cls-3 {
        fill: none;
      }

      .cls-5 {
        fill: #231f20;
      }

      .cls-6 {
        display: none;
      }

      .cls-2 {
        stroke-width: 3px;
      }
    </style>
  </defs>
  <!-- Generator: Adobe Illustrator 28.7.2, SVG Export Plug-In . SVG Version: 1.2.0 Build 154)  -->
  <g>
    <g id="Layer_1">
      <g>
        <g id="Layer_1-2" data-name="Layer_1">
          <circle class="cls-2" cx="32" cy="32" r="26.1"/>
          <circle class="cls-2" cx="32" cy="32" r="5.1"/>
          <line class="cls-3" x1="32" y1="26.9" x2="32" y2="10.2"/>
          <line class="cls-3" x1="32" y1="37.1" x2="32" y2="53.8"/>
          <line class="cls-3" x1="36.7" y1="33.9" x2="51.4" y2="42.1"/>
          <line class="cls-3" x1="36.3" y1="29.2" x2="51.1" y2="20.9"/>
          <line class="cls-3" x1="27.2" y1="34.3" x2="12.9" y2="42.4"/>
          <line class="cls-3" x1="27.6" y1="29.7" x2="12.8" y2="21.3"/>
          <circle class="cls-3" cx="32" cy="32" r="21.8"/>
        </g>
        <g id="Layer_3" class="cls-6">
          <line class="cls-3" x1="11.5" y1="24.6" x2="26" y2="30.7"/>
          <line class="cls-3" x1="13.4" y1="25.4" x2="14.9" y2="22.5"/>
          <line class="cls-3" x1="15.7" y1="26.5" x2="17.2" y2="23.6"/>
          <line class="cls-3" x1="18" y1="27.7" x2="19.5" y2="24.9"/>
          <line class="cls-3" x1="20.9" y1="28.8" x2="22.2" y2="26.3"/>
          <line class="cls-3" x1="23.7" y1="30" x2="24.9" y2="27.8"/>
          <line class="cls-3" x1="35.3" y1="37.1" x2="50.3" y2="43.5"/>
          <line class="cls-3" x1="37.2" y1="38" x2="38.8" y2="35"/>
          <line class="cls-3" x1="39.7" y1="39.1" x2="41.2" y2="36.2"/>
          <line class="cls-3" x1="42" y1="40.4" x2="43.6" y2="37.4"/>
          <line class="cls-3" x1="45" y1="41.5" x2="46.4" y2="38.9"/>
          <line class="cls-3" x1="47.9" y1="42.7" x2="49.2" y2="40.4"/>
          <path class="cls-1" d="M15.5,26.3"/>
          <line class="cls-3" x1="14.8" y1="46.1" x2="28.4" y2="36.1"/>
          <line class="cls-3" x1="16.5" y1="44.8" x2="14.7" y2="41.8"/>
          <line class="cls-3" x1="18.9" y1="43.3" x2="17.1" y2="40.3"/>
          <line class="cls-3" x1="21.2" y1="41.9" x2="19.4" y2="38.8"/>
          <line class="cls-3" x1="23.9" y1="39.8" x2="22.3" y2="37.1"/>
          <line class="cls-3" x1="26.5" y1="37.9" x2="25.1" y2="35.5"/>
          <path class="cls-1" d="M18.5,43.3"/>
          <line class="cls-3" x1="38.2" y1="30" x2="51.1" y2="22"/>
          <line class="cls-3" x1="29.7" y1="10.3" x2="30.8" y2="26.9"/>
          <line class="cls-3" x1="30.8" y1="37.4" x2="31.1" y2="53.3"/>
        </g>
        <g>
          <g id="Layer_2">
            <g>
              <line class="cls-4" x1="7.5" y1="41.5" x2="4.5" y2="42.6"/>
              <path class="cls-5" d="M7.5,41.5c0,.6.1,1.1.2,1.5-.1,0-.2,0-.4.1l-.7.3-1.1.4c-.3-.4-.6-.7-.9-1.2,0-.6-.1-1-.2-1.5l1.1-.4.7-.3c.1,0,.2,0,.4-.2.3.4.6.7.9,1.2h0Z"/>
            </g>
          </g>
          <g id="Layer_2-2" data-name="Layer_2">
            <g>
              <line class="cls-4" x1="5.9" y1="35.6" x2="2.8" y2="36"/>
              <path class="cls-5" d="M5.9,35.6c0,.6-.1,1.1-.2,1.5-.1,0-.3,0-.4,0h-.8c-.3.1-.9.2-1.2.3-.2-.4-.4-.8-.6-1.4,0-.6.1-1,.2-1.5l1.2-.2h.8c.1-.1.3-.1.4-.2.2.4.4.8.6,1.4h0Z"/>
            </g>
          </g>
          <g id="Layer_2-3" data-name="Layer_2">
            <g>
              <line class="cls-4" x1="5.8" y1="29.4" x2="2.7" y2="29.1"/>
              <path class="cls-5" d="M5.8,29.4c-.2.6-.4,1-.5,1.4-.1,0-.3,0-.4,0h-.8c-.3-.1-.9-.2-1.2-.2,0-.5-.2-.9-.3-1.5.2-.6.4-1,.5-1.4h1.2c0,.1.8.2.8.2.1,0,.3,0,.4,0,0,.5.2.9.3,1.5h0Z"/>
            </g>
          </g>
          <g id="Layer_2-4" data-name="Layer_2">
            <g>
              <line class="cls-4" x1="7.1" y1="23.5" x2="4.1" y2="22.4"/>
              <path class="cls-5" d="M7.1,23.5c-.3.5-.6.9-.9,1.3-.1,0-.2,0-.4-.1l-.7-.3-1.1-.4c0-.5,0-.9,0-1.5.3-.5.6-.9.9-1.3l1.1.4.7.3c.1,0,.2,0,.4.1,0,.5,0,.9-.1,1.5h0Z"/>
            </g>
          </g>
          <g id="Layer_2-5" data-name="Layer_2">
            <g>
              <line class="cls-4" x1="9.8" y1="18" x2="7.1" y2="16.3"/>
              <path class="cls-5" d="M9.8,18c-.4.4-.8.7-1.1,1,0,0-.2-.1-.3-.2l-.7-.4-1-.6c.1-.4.2-.9.4-1.5.4-.4.8-.7,1.1-1l1,.6.7.4c.1,0,.2.1.3.2-.1.4-.2.9-.5,1.5h0Z"/>
            </g>
          </g>
          <g id="Layer_2-6" data-name="Layer_2">
            <g>
              <line class="cls-4" x1="13.6" y1="13.2" x2="11.4" y2="10.9"/>
              <path class="cls-5" d="M13.6,13.2c-.5.3-.9.5-1.3.8,0-.1-.2-.2-.3-.3l-.6-.6-.8-.8c.2-.4.4-.8.8-1.3.5-.3.9-.5,1.3-.7l.8.8.6.6c0,0,.2.2.3.3-.2.4-.4.8-.8,1.3h0Z"/>
            </g>
          </g>
          <g id="Layer_2-7" data-name="Layer_2">
            <g>
              <line class="cls-4" x1="18.4" y1="9.5" x2="16.8" y2="6.8"/>
              <path class="cls-5" d="M18.4,9.5c-.6.2-1,.3-1.5.4,0-.1-.1-.2-.2-.3l-.4-.7-.6-1c.3-.3.6-.7,1.1-1.1.6-.2,1-.3,1.5-.4l.6,1,.4.7c0,.1.1.2.2.3-.3.3-.6.7-1.1,1.1h0Z"/>
            </g>
          </g>
          <g id="Layer_2-8" data-name="Layer_2">
            <g>
              <line class="cls-4" x1="24" y1="7" x2="23" y2="3.9"/>
              <path class="cls-5" d="M24,7c-.6,0-1.1,0-1.5,0,0-.1,0-.2-.1-.4l-.2-.8-.4-1.1c.4-.3.8-.5,1.3-.8.6,0,1.1,0,1.5,0l.4,1.1.2.8c0,.1,0,.3.1.4-.4.3-.7.5-1.3.8h0Z"/>
            </g>
          </g>
          <g id="Layer_2-9" data-name="Layer_2">
            <g>
              <line class="cls-4" x1="30" y1="5.8" x2="29.7" y2="2.6"/>
              <path class="cls-5" d="M30,5.8c-.6,0-1.1-.2-1.5-.3,0-.1,0-.3,0-.4v-.8c0-.3-.1-.9-.2-1.2.4-.2.9-.3,1.4-.5.6,0,1,.2,1.5.3v1.2c0,0,.2.8.2.8,0,.1,0,.3,0,.4-.4.2-.8.3-1.4.5h0Z"/>
            </g>
          </g>
          <g id="Layer_2-10" data-name="Layer_2">
            <g>
              <line class="cls-4" x1="36.1" y1="6" x2="36.6" y2="2.9"/>
              <path class="cls-5" d="M36.1,6c-.6-.2-1-.4-1.4-.6,0-.1,0-.3,0-.4v-.8c.2-.3.3-.9.3-1.2.5,0,.9-.1,1.5-.2.6.2,1,.4,1.4.6l-.2,1.2v.8c-.1.1-.2.3-.2.4-.5,0-.9.1-1.5.2h0Z"/>
            </g>
          </g>
          <g id="Layer_2-11" data-name="Layer_2">
            <g>
              <line class="cls-4" x1="42" y1="7.7" x2="43.2" y2="4.7"/>
              <path class="cls-5" d="M42,7.7c-.5-.4-.9-.6-1.2-.9,0-.1,0-.2.2-.4l.3-.7.5-1.1c.5,0,.9,0,1.5.2.5.3.8.6,1.2.9l-.5,1.1-.3.7c0,.1-.1.2-.1.4-.5,0-.9,0-1.5-.2h0Z"/>
            </g>
          </g>
          <g id="Layer_2-12" data-name="Layer_2">
            <g>
              <line class="cls-4" x1="47.3" y1="10.6" x2="49.1" y2="8"/>
              <path class="cls-5" d="M47.3,10.6c-.4-.5-.7-.8-1-1.2.1,0,.2-.2.2-.3l.5-.6.7-1c.4.2.9.3,1.4.5.4.4.7.8,1,1.2l-.7,1-.5.6c0,.1-.2.2-.2.3-.4-.2-.9-.3-1.4-.5h0Z"/>
            </g>
          </g>
          <g id="Layer_2-13" data-name="Layer_2">
            <g>
              <line class="cls-4" x1="51.8" y1="14.7" x2="54.2" y2="12.6"/>
              <path class="cls-5" d="M51.8,14.7c-.3-.5-.5-1-.7-1.4.1,0,.2-.2.3-.3l.6-.5.9-.8c.4.3.8.5,1.3.8.3.5.5.9.7,1.4l-.9.8-.6.5c0,0-.2.2-.3.3-.4-.2-.8-.5-1.3-.9h0Z"/>
            </g>
          </g>
          <g id="Layer_2-14" data-name="Layer_2">
            <g>
              <line class="cls-4" x1="55.3" y1="19.8" x2="58.1" y2="18.3"/>
              <path class="cls-5" d="M55.3,19.8c-.2-.6-.3-1-.3-1.5.1,0,.2-.1.4-.2l.7-.4,1.1-.6c.3.3.6.7,1,1.1.2.6.2,1,.3,1.5l-1.1.6-.7.4c-.1,0-.2.1-.3.2-.3-.3-.6-.6-1-1.1h0Z"/>
            </g>
          </g>
          <g id="Layer_2-15" data-name="Layer_2">
            <g>
              <line class="cls-4" x1="57.5" y1="25.4" x2="60.5" y2="24.7"/>
              <path class="cls-5" d="M57.5,25.4c0-.6,0-1.1,0-1.5.1,0,.3,0,.4,0l.8-.2,1.2-.3c.2.4.5.8.8,1.3,0,.6,0,1.1,0,1.5l-1.2.3-.8.2c-.1,0-.3,0-.4.1-.2-.4-.5-.8-.8-1.3h0Z"/>
            </g>
          </g>
          <g id="Layer_2-16" data-name="Layer_2">
            <g>
              <line class="cls-4" x1="58.3" y1="31.5" x2="61.5" y2="31.4"/>
              <path class="cls-5" d="M58.3,31.5c.1-.6.2-1,.4-1.5.1,0,.3,0,.4,0h.8c.3,0,.9,0,1.2,0,.1.4.3.9.4,1.5-.1.6-.2,1-.4,1.5h-1.2s-.8,0-.8,0c-.1,0-.3,0-.4,0-.1-.4-.3-.9-.4-1.5h0Z"/>
            </g>
          </g>
          <g id="Layer_2-17" data-name="Layer_2">
            <g>
              <line class="cls-4" x1="57.7" y1="37.6" x2="60.8" y2="38.2"/>
              <path class="cls-5" d="M57.7,37.6c.3-.6.5-1,.7-1.4.1,0,.3,0,.4,0l.8.2,1.2.3c0,.5,0,.9,0,1.5-.3.5-.5.9-.7,1.4l-1.2-.3-.8-.2c-.1,0-.3,0-.4,0,0-.5,0-.9,0-1.5h0Z"/>
            </g>
          </g>
          <g id="Layer_2-18" data-name="Layer_2">
            <g>
              <line class="cls-4" x1="55.7" y1="43.4" x2="58.6" y2="44.7"/>
              <path class="cls-5" d="M55.7,43.4c.4-.5.7-.8,1-1.2.1,0,.2.1.4.2l.7.3,1.1.5c0,.5-.1.9-.3,1.5-.4.5-.7.8-1,1.2l-1.1-.5-.7-.3c-.1,0-.2-.1-.4-.2,0-.5.1-.9.3-1.5h0Z"/>
            </g>
          </g>
          <g id="Layer_2-19" data-name="Layer_2">
            <g>
              <line class="cls-4" x1="52.5" y1="48.5" x2="54.9" y2="50.5"/>
              <path class="cls-5" d="M52.5,48.5c.5-.4.9-.6,1.2-.9,0,.1.2.2.3.3l.6.5.9.7c-.2.4-.4.8-.6,1.4-.5.4-.8.6-1.2.9l-.9-.7-.6-.5c-.1,0-.2-.2-.3-.2.2-.4.3-.8.6-1.4h0Z"/>
            </g>
          </g>
          <g id="Layer_2-20" data-name="Layer_2">
            <g>
              <line class="cls-4" x1="48.1" y1="52.8" x2="50.1" y2="55.3"/>
              <path class="cls-5" d="M48.1,52.8c.6-.3,1-.4,1.4-.6,0,.1.2.2.2.3l.5.6.7.9c-.3.4-.5.7-.9,1.2-.5.3-1,.4-1.4.6l-.7-.9-.5-.6c0-.1-.2-.2-.3-.3.3-.4.5-.7.9-1.2h0Z"/>
            </g>
          </g>
          <g id="Layer_2-21" data-name="Layer_2">
            <g>
              <line class="cls-4" x1="42.9" y1="55.9" x2="44.2" y2="58.8"/>
              <path class="cls-5" d="M42.9,55.9c.6-.1,1.1-.2,1.5-.2,0,.1.1.2.2.4l.3.7.5,1.1c-.4.3-.7.6-1.2,1-.6.1-1,.2-1.5.2l-.5-1.1-.3-.7c0-.1,0-.2-.2-.4.3-.3.7-.6,1.2-1h0Z"/>
            </g>
          </g>
          <g id="Layer_2-22" data-name="Layer_2">
            <g>
              <line class="cls-4" x1="37.1" y1="57.8" x2="37.7" y2="60.9"/>
              <path class="cls-5" d="M37.1,57.8c.6,0,1.1,0,1.5.1,0,.1,0,.3,0,.4l.2.8.2,1.2c-.4.2-.8.4-1.4.7-.6,0-1.1,0-1.5-.1l-.2-1.2-.2-.8c0-.1,0-.3,0-.4.4-.2.8-.4,1.4-.7h0Z"/>
            </g>
          </g>
          <g id="Layer_2-23" data-name="Layer_2">
            <g>
              <line class="cls-4" x1="31" y1="58.3" x2="30.8" y2="61.5"/>
              <path class="cls-5" d="M31,58.3c.6.2,1,.3,1.5.5,0,.1,0,.3,0,.4v.8c0,.3,0,.9,0,1.2-.5.1-.9.2-1.5.3-.6-.2-1-.3-1.5-.5v-1.2s0-.8,0-.8c0-.1,0-.3,0-.4.4-.1.9-.2,1.5-.3h0Z"/>
            </g>
          </g>
          <g id="Layer_2-24" data-name="Layer_2">
            <g>
              <line class="cls-4" x1="24.9" y1="57.3" x2="24.1" y2="60.4"/>
              <path class="cls-5" d="M24.9,57.3c.6.3.9.5,1.3.8,0,.1,0,.3-.1.4l-.2.8-.3,1.1c-.5,0-.9,0-1.5,0-.5-.3-.9-.5-1.3-.8l.3-1.1.2-.8c0-.1,0-.2,0-.4.5,0,.9,0,1.5,0h0Z"/>
            </g>
          </g>
          <g id="Layer_2-25" data-name="Layer_2">
            <g>
              <line class="cls-4" x1="19.3" y1="55" x2="17.8" y2="57.8"/>
              <path class="cls-5" d="M19.3,55c.5.4.8.7,1.1,1.1,0,0-.1.2-.2.3l-.4.7-.6,1c-.5-.1-.9-.2-1.5-.4-.5-.4-.8-.7-1.1-1.1l.6-1,.4-.7c0-.1.1-.2.2-.4.4,0,.9.2,1.5.4h0Z"/>
            </g>
          </g>
          <g id="Layer_2-26" data-name="Layer_2">
            <g>
              <line class="cls-4" x1="14.3" y1="51.5" x2="12.2" y2="53.8"/>
              <path class="cls-5" d="M14.3,51.5c.4.5.6.9.8,1.3-.1,0-.2.2-.3.3l-.5.6-.8.9c-.4-.2-.8-.4-1.4-.7-.3-.5-.6-.9-.8-1.3l.8-.9.5-.6c0,0,.2-.2.3-.3.4.2.8.4,1.4.7h0Z"/>
            </g>
          </g>
          <g id="Layer_2-27" data-name="Layer_2">
            <g>
              <line class="cls-4" x1="10.3" y1="46.9" x2="7.7" y2="48.7"/>
              <path class="cls-5" d="M10.3,46.9c.2.6.4,1,.5,1.4-.1,0-.2.1-.3.2l-.7.4-1,.7c-.4-.3-.7-.6-1.2-1-.2-.6-.4-1-.5-1.4l1-.7.7-.4c.1,0,.2-.1.3-.2.4.3.7.6,1.2,1h0Z"/>
            </g>
          </g>
        </g>
      </g>
    </g>
  </g>
</svg>