<?xml version="1.0" encoding="UTF-8"?>
<svg xmlns="http://www.w3.org/2000/svg" version="1.1" viewBox="0 0 64 128">
  <defs>
    <style>
      .cls-1 {
        fill: #231f20;
      }

      .cls-2 {
        fill: none;
        stroke: #231f20;
        stroke-miterlimit: 10;
      }
    </style>
  </defs>
  <!-- Generator: Adobe Illustrator 28.7.2, SVG Export Plug-In . SVG Version: 1.2.0 Build 154)  -->
  <g>
    <g id="Layer_1">
      <path class="cls-1" d="M44.44,13.99c.54.92,1.05,2.44,1.84,2.99.08.03.09.16.13.24.12.25.54.93.69,1.19,2.3,3.88,6.11,10.29,8.42,14.18,0,0,1.85,3.12,1.85,3.12-.09.98.75,2.07,1.63,2.69-1.49.4-3.07-.02-4.25-1.23,0,0-1.87-3.16-1.87-3.16-1.85-3.12-5.58-9.39-7.43-12.51,0,0-1.95-3.29-1.95-3.29-.22-1.73.3-2.8.93-4.22h0Z"/>
      <path class="cls-1" d="M43.11,33.16c.69-.34,1.59-.87,2.24-.91.2.14.82.28,1.06.37,1.42.44,4.28,1.33,5.7,1.77.73.24.82.23,1.38.22.65,0,1.39.11,1.97.44.24.05.28.38.4.58l.32.7c.2.48.4.97.58,1.49-.79.02-1.59-.03-2.36-.11-.24-.05-.56.02-.69-.18l.37.19c-.28-.15-.66-.1-.97-.11-1.33.02-3.5-.93-4.75-1.24-.77-.21-3.18-1.05-3.93-1.18-.51-.41-.94-1.34-1.32-2.02h0Z"/>
      <path class="cls-1" d="M45.06,33.16c-.38.67-.81,1.61-1.32,2.02-.73.13-3.17.98-3.93,1.18-1.25.32-3.41,1.26-4.75,1.25-.31,0-.7-.04-.97.11,0,0,.37-.19.37-.19-.13.2-.45.13-.68.18-.77.08-1.57.13-2.36.11.17-.52.37-1.01.58-1.49l.32-.7c.13-.21.17-.53.4-.58.58-.33,1.32-.44,1.97-.44.57,0,.65.02,1.38-.22,1.42-.44,4.28-1.33,5.7-1.77.22-.09.86-.23,1.06-.37.65.05,1.54.57,2.24.91h0Z"/>
      <path class="cls-1" d="M44.44,13.82c.63,1.42,1.15,2.49.93,4.22,0,0-1.95,3.29-1.95,3.29-1.85,3.12-5.58,9.39-7.43,12.51,0,0-1.87,3.16-1.87,3.16-1.19,1.21-2.76,1.63-4.25,1.23.88-.62,1.72-1.72,1.63-2.69,0,0,1.85-3.12,1.85-3.12,2.31-3.9,6.12-10.3,8.42-14.18.21-.36.63-1.01.79-1.4,0-.02,0,0,.04-.03.79-.55,1.3-2.06,1.84-2.99h0Z"/>
      <line class="cls-2" x1="44.44" y1="18" x2="44.03" y2="33.76"/>
      <line class="cls-2" x1="44.44" y1="20.19" x2="42.12" y2="21.23"/>
      <line class="cls-2" x1="44.33" y1="22.24" x2="40.53" y2="24.03"/>
      <line class="cls-2" x1="44.15" y1="24.21" x2="38.24" y2="27.22"/>
      <line class="cls-2" x1="44.15" y1="26.52" x2="36.88" y2="29.92"/>
      <line class="cls-2" x1="44.03" y1="29.26" x2="35.86" y2="32.02"/>
      <path class="cls-2" d="M44.03,31.52c-.08.01-9.39,2.5-9.39,2.5"/>
      <path class="cls-1" d="M40.47,39.19l.18.67s.05.17.05.17c0,.02.01.05.02.06-.97,0-.27-.01-.49-.02-.43-1.58-.77-3.19-1.1-4.79,0,0-.02-.08-.02-.08,0,0,0-.04,0-.04,1.23,0-2.77-.02,2.76,0,.21.73.15,1.46.12,2.2,0,0,0,2.69,0,2.69v10.75c0,14.48,0,36.64,0,51.07,0,0,0,1.34,0,1.34v.38c0,.27-.07.55-.19.78-.72,1.56-2.13,2.47-2.78,3.88-.64,1.2-1.2,2.57-2.17,3.63-.69.74-1.58,1.13-2.43,1.42,2-1.3,2.24-3.56,2.64-5.72,0,0,.13-.67.13-.67.12-.41.21-.59.31-.84.48-1.07.91-2.15,1.63-3.07.01-.02-.01.02-.05.1-.05.13-.09.28-.09.43,0,.1,0,.1,0,.08,0,0,0-.02,0-.02v-1.72c0-14.4,0-36.61,0-51.07,0,0,0-10.75,0-10.75v-2.69c-.03-.74-.1-1.48.12-2.2,5.53-.01,1.53,0,2.76,0,0,0,0,.04,0,.04-.34,1.63-.68,3.26-1.12,4.87-.22,0,.48.02-.49.02,0,0,0-.02,0-.02,0,0,.01-.04.01-.04,0,0,.05-.17.05-.17,0,0,.18-.67.18-.67h0Z"/>
      <path class="cls-1" d="M45.47,103.96c-.12.71-.31,1.24-.49,1.78-.34.09-.66.22-.99.33-.99.34-2.97,1.03-3.96,1.38,0,0-.99.34-.99.34-.48-.32-.95-.62-1.48-1.07.13-.68.32-1.22.5-1.76l.99-.34c.99-.34,2.97-1.03,3.96-1.38.33-.12.66-.22.98-.36.48.31.95.61,1.49,1.09h0Z"/>
      <path class="cls-1" d="M47.43,39.19l.18.67.05.17s.01.05.02.06c-.97,0-.27-.01-.49-.02-.43-1.58-.77-3.19-1.1-4.79,0,0-.02-.08-.02-.08,0,0,0-.04,0-.04,1.23,0-2.77-.02,2.76,0,.21.73.15,1.46.12,2.2,0,0,0,2.69,0,2.69v10.75c0,14.48,0,36.64,0,51.07,0,0,0,1.34,0,1.34v.4s0,.02,0-.08c0-.14-.04-.29-.09-.43-.06-.13-.07-.13,0-.04.7.89,1.11,1.96,1.58,3,.1.25.19.44.31.84,0,0,.13.67.13.67.4,2.14.64,4.43,2.64,5.72-2.49-.62-3.58-2.94-4.6-5.05,0,0-.3-.6-.3-.6-.79-1.03-1.88-2.03-2.48-3.27-.19-.34-.2-.78-.19-1.16,0,0,0-1.34,0-1.34,0-14.4,0-36.61,0-51.07,0,0,0-10.75,0-10.75,0,0,0-2.69,0-2.69-.02-.74-.09-1.48.12-2.2,5.53-.01,1.53,0,2.76,0v.04c-.35,1.63-.69,3.26-1.13,4.87-.22,0,.48.02-.49.02v-.02s.02-.04.02-.04c0,0,.05-.17.05-.17,0,0,.18-.67.18-.67h0Z"/>
      <path class="cls-1" d="M42.43,103.96c.54-.48,1.01-.78,1.49-1.09.32.14.66.24.98.36.99.34,2.97,1.03,3.96,1.38,0,0,.99.34.99.34.18.55.36,1.08.5,1.76-.53.45-1,.76-1.48,1.07l-.99-.34c-.99-.34-2.97-1.03-3.96-1.38-.33-.11-.65-.24-.99-.33-.18-.54-.37-1.07-.49-1.78h0Z"/>
      <path class="cls-1" d="M19.56,114.01c-.54-.92-1.05-2.44-1.84-2.99-.08-.03-.09-.16-.13-.24-.12-.25-.54-.93-.69-1.19-2.3-3.88-6.11-10.29-8.42-14.18,0,0-1.85-3.12-1.85-3.12.09-.98-.75-2.07-1.63-2.69,1.49-.4,3.07.02,4.25,1.23,0,0,1.87,3.16,1.87,3.16,1.85,3.12,5.58,9.39,7.43,12.51,0,0,1.95,3.29,1.95,3.29.22,1.73-.3,2.8-.93,4.22h0Z"/>
      <path class="cls-1" d="M20.89,94.84c-.69.34-1.59.87-2.24.91-.2-.14-.82-.28-1.06-.37-1.42-.44-4.28-1.33-5.7-1.77-.73-.24-.82-.23-1.38-.22-.65,0-1.39-.11-1.97-.44-.24-.05-.28-.38-.4-.58l-.32-.7c-.2-.48-.4-.97-.58-1.49.79-.02,1.59.03,2.36.11.24.05.56-.02.69.18l-.37-.19c.28.15.66.1.97.11,1.33-.02,3.5.93,4.75,1.24.77.21,3.18,1.05,3.93,1.18.51.41.94,1.34,1.32,2.02h0Z"/>
      <path class="cls-1" d="M18.94,94.84c.38-.67.81-1.61,1.32-2.02.73-.13,3.17-.98,3.93-1.18,1.25-.32,3.41-1.26,4.75-1.25.31,0,.7.04.97-.11,0,0-.37.19-.37.19.13-.2.45-.13.68-.18.77-.08,1.57-.13,2.36-.11-.17.52-.37,1.01-.58,1.49l-.32.7c-.13.21-.17.53-.4.58-.58.33-1.32.44-1.97.44-.57,0-.65-.02-1.38.22-1.42.44-4.28,1.33-5.7,1.77-.22.09-.86.23-1.06.37-.65-.05-1.54-.57-2.24-.91h0Z"/>
      <path class="cls-1" d="M19.56,114.18c-.63-1.42-1.15-2.49-.93-4.22,0,0,1.95-3.29,1.95-3.29,1.85-3.12,5.58-9.39,7.43-12.51,0,0,1.87-3.16,1.87-3.16,1.19-1.21,2.76-1.63,4.25-1.23-.88.62-1.72,1.72-1.63,2.69,0,0-1.85,3.12-1.85,3.12-2.31,3.9-6.12,10.3-8.42,14.18-.21.36-.63,1.01-.79,1.4,0,.02,0,0-.04.03-.79.55-1.3,2.06-1.84,2.99h0Z"/>
      <line class="cls-2" x1="19.56" y1="110" x2="19.97" y2="94.24"/>
      <line class="cls-2" x1="19.56" y1="107.81" x2="21.88" y2="106.77"/>
      <line class="cls-2" x1="19.67" y1="105.76" x2="23.47" y2="103.97"/>
      <line class="cls-2" x1="19.85" y1="103.79" x2="25.76" y2="100.78"/>
      <line class="cls-2" x1="19.85" y1="101.48" x2="27.12" y2="98.08"/>
      <line class="cls-2" x1="19.97" y1="98.74" x2="28.14" y2="95.98"/>
      <path class="cls-2" d="M19.97,96.48c.08-.01,9.39-2.5,9.39-2.5"/>
      <path class="cls-1" d="M23.53,88.81l-.18-.67-.05-.17s-.01-.05-.02-.06c.97,0,.27.01.49.02.43,1.58.77,3.19,1.1,4.79,0,0,.02.08.02.08v.04c-1.22,0,2.77.02-2.75,0-.21-.73-.15-1.46-.12-2.2,0,0,0-2.69,0-2.69v-10.75c0-14.48,0-36.64,0-51.07,0,0,0-1.34,0-1.34v-.38c0-.27.07-.55.19-.78.72-1.56,2.13-2.47,2.78-3.88.64-1.2,1.2-2.57,2.17-3.63.69-.74,1.58-1.13,2.43-1.42-2,1.3-2.24,3.56-2.64,5.72,0,0-.13.67-.13.67-.12.41-.21.59-.31.84-.48,1.07-.91,2.15-1.63,3.07-.01.02.01-.02.05-.1.05-.13.09-.28.09-.43,0-.1,0-.1,0-.08v1.74c0,14.4,0,36.61,0,51.07,0,0,0,10.75,0,10.75v2.69c.03.74.1,1.48-.12,2.2-5.53.01-1.53,0-2.76,0,0,0,0-.04,0-.04.34-1.63.68-3.26,1.12-4.87.22,0-.48-.02.49-.02v.02s-.02.04-.02.04l-.05.17s-.18.67-.18.67h0Z"/>
      <path class="cls-1" d="M18.53,24.04c.12-.71.31-1.24.49-1.78.34-.09.66-.22.99-.33.99-.34,2.97-1.03,3.96-1.38,0,0,.99-.34.99-.34.48.32.95.62,1.48,1.07-.13.68-.32,1.22-.5,1.76l-.99.34c-.99.34-2.97,1.03-3.96,1.38-.33.12-.66.22-.98.36-.48-.31-.95-.61-1.49-1.09h0Z"/>
      <path class="cls-1" d="M16.57,88.81l-.18-.67-.05-.17s-.01-.05-.02-.06c.97,0,.27.01.49.02.43,1.58.77,3.19,1.1,4.79,0,0,.02.08.02.08v.04c-1.22,0,2.77.02-2.75,0-.21-.73-.15-1.46-.12-2.2,0,0,0-2.69,0-2.69v-10.75c0-14.48,0-36.64,0-51.07,0,0,0-1.34,0-1.34v-.4s0-.02,0,.08c0,.14.04.29.09.43.06.13.07.13,0,.04-.7-.89-1.11-1.96-1.58-3-.1-.25-.19-.44-.31-.84l-.13-.67c-.4-2.14-.64-4.43-2.64-5.72,2.49.62,3.58,2.94,4.6,5.05,0,0,.3.6.3.6.79,1.03,1.88,2.03,2.48,3.27.19.34.2.78.19,1.16,0,0,0,1.34,0,1.34,0,14.4,0,36.61,0,51.07,0,0,0,10.75,0,10.75v2.69c.03.74.1,1.48-.12,2.2-5.53.01-1.53,0-2.76,0v-.04c.35-1.63.69-3.26,1.13-4.87.22,0-.48-.02.49-.02v.02s-.02.04-.02.04l-.05.17-.18.67h0Z"/>
      <path class="cls-1" d="M21.57,24.04c-.54.48-1.01.78-1.49,1.09-.32-.14-.66-.24-.98-.36-.99-.34-2.97-1.03-3.96-1.38,0,0-.99-.34-.99-.34-.18-.55-.36-1.08-.5-1.76.53-.45,1-.76,1.48-1.07l.99.34c.99.34,2.97,1.03,3.96,1.38.33.11.65.24.99.33.18.54.37,1.07.49,1.78h0Z"/>
    </g>
  </g>
</svg>